<?xml version="1.0" encoding="UTF-8" standalone="no"?>
<!-- Created with Inkscape (http://www.inkscape.org/) -->

<svg
   version="1.1"
   id="svg1"
   width="593.22668"
   height="421.05334"
   viewBox="0 0 593.22668 421.05334"
   sodipodi:docname="CP_logo_alt_cmyk.eps"
   xmlns:inkscape="http://www.inkscape.org/namespaces/inkscape"
   xmlns:sodipodi="http://sodipodi.sourceforge.net/DTD/sodipodi-0.dtd"
   xmlns="http://www.w3.org/2000/svg"
   xmlns:svg="http://www.w3.org/2000/svg">
  <defs
     id="defs1" />
  <sodipodi:namedview
     id="namedview1"
     pagecolor="#ffffff"
     bordercolor="#000000"
     borderopacity="0.25"
     inkscape:showpageshadow="2"
     inkscape:pageopacity="0.0"
     inkscape:pagecheckerboard="0"
     inkscape:deskcolor="#d1d1d1">
    <inkscape:page
       x="0"
       y="0"
       inkscape:label="1"
       id="page1"
       width="593.22668"
       height="421.05334"
       margin="0"
       bleed="0" />
  </sodipodi:namedview>
  <g
     id="g1"
     inkscape:groupmode="layer"
     inkscape:label="1">
    <g
       id="group-R5">
      <path
         id="path2"
         d="M 3186.94,167.352 C 3162.01,99.9297 3112.55,60.9297 3050.37,61.8086 c -48,0.7617 -85.26,23.4922 -112.98,62.9924 -30.04,42.668 -42.39,92.16 -47.4,143.66 -5.61,58.187 -4.76,116.391 9.41,173.461 10.13,41.148 26.01,79.898 58.99,107.418 61.69,51.629 149.4,39.898 197.64,-25.738 27.98,-38.141 41.65,-82.321 47.76,-128.903 3.55,-26.508 4.65,-53.269 5.86,-69.558 -1.21,-60.59 -5.13,-110.211 -22.71,-157.789 M 3365.76,383.84 C 3350.86,484.328 3300.41,560.07 3211,605 c -67.92,34.219 -140.35,41.289 -214.37,30.191 -143.89,-21.722 -271.17,-141.019 -271.54,-321.793 0.49,-8.199 0.85,-18.679 1.71,-29.16 C 2737.06,167.98 2790.2,82.0117 2894.64,33.5313 2954.49,5.89063 3018,-1.69141 3083.11,5.76172 3177.42,16.6094 3255.22,58.9102 3311.9,138.441 c 52.27,73.34 67.06,156.778 53.86,245.399"
         style="fill:#ffffff;fill-opacity:1;fill-rule:nonzero;stroke:none"
         transform="matrix(0.13333333,0,0,-0.13333333,0,421.05333)" />
      <path
         id="path3"
         d="m 943.398,263.211 c 25.704,73.41 50.133,144.98 75.232,216.668 1.11,0 2.34,0.121 3.58,0.121 23.73,-71.699 49.02,-143.379 73.37,-216.789 z M 1339.57,85.2305 c -21.13,5.5508 -35.1,17.1675 -42.77,39.2895 -40.04,116.679 -81.45,232.75 -122.36,349.05 -16.56,47.102 -33,94.18 -49.44,141.27 H 903.813 l 4.57,-50.82 c 0,0 12.859,-1.149 25.156,-2.879 9.848,-1.411 15.902,-10.379 13.457,-20.032 C 934.738,492.762 826.27,190.461 805.492,132.309 790.414,90.1094 726.262,77.8086 719.965,75.8203 718.852,59.5117 717.191,43.9414 716.082,28.1211 h 229.063 c -1.485,16.8008 -2.575,32.3789 -3.934,47.3398 0,0 -31.441,4.3985 -40.223,8.9688 -13.867,7.2109 -13.855,20.1523 -9.765,30.2693 13.355,33.11 22.5,63.973 34.25,97.082 h 190.947 c 9.03,-32 17.36,-63.89 25.14,-96.402 4.2,-17.3087 -1.85,-25.3399 -19.4,-30.2774 -13.48,-3.8399 -27.57,-5.9414 -42.52,-9.0196 -1.36,-15.7031 -2.57,-31.4023 -3.92,-47.832 h 303.76 c -1.49,17.0508 -2.58,32.7383 -3.94,48.3203 -12.86,3.0899 -24.48,5.5586 -35.97,8.6602"
         style="fill:#ffffff;fill-opacity:1;fill-rule:nonzero;stroke:none"
         transform="matrix(0.13333333,0,0,-0.13333333,0,421.05333)" />
      <path
         id="path4"
         d="m 1862.93,222.422 c -5.69,-20.774 -10.51,-41.91 -17.3,-62.301 -10.38,-30.769 -31.27,-51.172 -63.29,-59.332 -31.07,-7.7695 -87.42,-9.3007 -116.32,-9.5702 -10.01,-0.0782 -18.16,7.9804 -18.16,17.9922 -0.03,65.93 -0.13,296.777 -0.24,418.738 0,14.961 6.92,23.36 21.5,26.211 17.68,3.461 35.11,7.531 52.29,11.238 1.23,17.68 4.01,49.082 4.01,49.082 h -293.23 c 0,0 2.59,-33 4.07,-49.441 13.97,-3.719 27.69,-7.418 41.41,-11.129 14.34,-3.949 21.75,-12.609 21.75,-28.422 -0.24,-136.34 -0.24,-272.789 0,-409.25 0,-15.566 -6.67,-24.3396 -21.62,-28.1677 -14.22,-3.4687 -28.07,-8.039 -41.66,-12 -1.48,-16.6797 -2.42,-31.8906 -3.91,-47.832 h 468.57 l 17.06,210.2497 h -50.35 c -1.49,-5.437 -3.1,-10.636 -4.58,-16.066"
         style="fill:#ffffff;fill-opacity:1;fill-rule:nonzero;stroke:none"
         transform="matrix(0.13333333,0,0,-0.13333333,0,421.05333)" />
      <path
         id="path5"
         d="m 3850.97,222.422 c -5.68,-20.774 -10.5,-41.91 -17.3,-62.301 -10.39,-30.769 -31.27,-51.172 -63.29,-59.332 -31.07,-7.7695 -87.43,-9.3007 -116.32,-9.5702 -10.01,-0.0782 -18.16,7.9804 -18.16,17.9922 -0.03,65.93 -0.14,296.789 -0.24,418.738 0,14.961 6.92,23.36 21.5,26.211 17.69,3.461 35.11,7.531 52.29,11.25 1.24,17.668 2.97,33.371 4.09,49.07 h -293.31 c 0,0 2.59,-33 4.07,-49.441 13.97,-3.719 27.69,-7.418 41.42,-11.129 14.33,-3.961 21.74,-12.609 21.74,-28.43 -0.24,-136.332 -0.24,-272.781 0,-409.242 0,-15.558 -6.67,-24.3396 -21.63,-28.1677 -14.21,-3.4687 -28.05,-8.039 -41.65,-12 -1.48,-16.6797 -2.45,-31.8906 -3.94,-47.832 h 468.6 l 17.06,210.2497 h -50.35 c -1.49,-5.437 -3.1,-10.636 -4.58,-16.066"
         style="fill:#ffffff;fill-opacity:1;fill-rule:nonzero;stroke:none"
         transform="matrix(0.13333333,0,0,-0.13333333,0,421.05333)" />
      <path
         id="path6"
         d="m 617.836,703.051 c -54.172,23.57 -110.09,37.289 -166.691,41.379 -47.157,3.558 -94.821,0.14 -142.844,-9.91 -8.895,-1.848 -17.785,-3.84 -26.668,-6.161 C 266.398,724.41 251.684,719.68 237.383,714.34 189.418,696.441 146.824,670.711 110.793,636.012 89.5156,615.531 70.4961,591.949 53.9922,565.051 37.6016,538.371 25.2852,510.91 16.5664,482.789 -2.21484,422.262 -4.23438,358.691 6.51563,293.172 11.043,265.66 17.9414,240.109 26.9453,216.34 61.9531,123.91 130.73,59.7695 233.273,24.9219 313.758,-2.44141 386.359,-6.10938 469.602,8.26172 c 31.113,5.36718 61.793,12.68748 88.828,23.53908 33.074,13.25 61.629,26.9492 94.433,47.2695 5.879,3.6602 10.114,7.7383 13.114,12.5078 3.628,5.7539 5.453,12.5239 5.769,20.9609 1.074,28.391 4.942,61.043 7.473,89.383 1.906,21.34 3.23,53.918 5.222,76.258 h -0.046 L 611.43,274.5 c -0.153,-0.898 -0.254,-1.648 -0.375,-2.461 -0.418,-2.348 -0.797,-4.48 -1.063,-6.5 -0.023,-0.199 -0.062,-0.43 -0.094,-0.629 C 599.527,210.012 581.215,153.699 541.594,114.148 510.926,85.3398 468.191,64.3594 408.918,61.2891 c -0.117,0 -0.207,-0.0078 -0.324,-0.0078 -14.153,-0.1797 -27.778,0.9492 -40.953,3.0898 -29.797,4.8281 -57.032,15.3398 -81,31.3086 -0.774,0.5 -1.5,1.1016 -2.262,1.6289 -3.516,2.4102 -7.008,4.8714 -10.383,7.5114 -1.699,1.34 -3.308,2.821 -4.965,4.219 -2.359,1.961 -4.758,3.852 -7.031,5.941 -2.223,2.032 -4.324,4.239 -6.469,6.379 -1.613,1.602 -3.293,3.129 -4.863,4.801 -1.891,1.988 -3.668,4.16 -5.484,6.262 -1.723,1.957 -3.5,3.848 -5.172,5.887 -1.157,1.421 -2.235,2.972 -3.364,4.453 -2.222,2.859 -4.46,5.668 -6.578,8.679 -0.195,0.258 -0.359,0.571 -0.547,0.84 -9.347,13.391 -17.668,28.11 -24.824,44.16 -24.051,53.918 -37.605,108.969 -40.781,164.821 -2.82,49.699 2.559,100 16.434,150.718 5.711,20.969 13.246,40.75 22.894,58.961 19.727,37.18 48.258,67.778 87.695,88.77 3.047,1.617 6.114,3.219 9.297,4.738 0.965,0.461 1.934,0.852 2.907,1.289 38.992,18 79.171,27.473 118.664,24.231 30.711,-2.891 64.589,-13.68 94.195,-34.918 43.359,-31.281 70.316,-76.77 85.855,-126.699 0.192,-0.633 0.407,-1.262 0.594,-1.891 2.59,-8.531 5.192,-17.039 7.59,-24.891 h 0.039 c 0,-0.011 0,-0.011 0,-0.019 l 64.238,3.238 v 0.02 h 0.016 l -8.574,169.66 c -4.801,3.359 -9.684,7.301 -15.047,10.441 -10.801,6.328 -21.449,13.16 -32.879,18.141"
         style="fill:#ffffff;fill-opacity:1;fill-rule:nonzero;stroke:none"
         transform="matrix(0.13333333,0,0,-0.13333333,0,421.05333)" />
      <path
         id="path7"
         d="m 2723.69,567.871 c -8.97,63.84 -48.54,105.231 -104.35,132.649 -54.9,26.98 -113.95,35.23 -174.33,35.441 -7.47,0.027 -14.94,0.008 -22.41,0.027 0.01,0.063 0.05,0.133 0.06,0.192 l -293.43,-0.008 c 0.95,-16.172 3,-31.32 3.82,-47.082 0.04,-0.629 0.07,-1.238 0.11,-1.86 16.3,-4.71 30.89,-8.91 45.46,-13.351 12.48,-3.707 18.29,-11.617 18.29,-25.207 -0.25,-137.57 -0.37,-275.024 0,-412.582 0,0 0.12,-96.578 0.19,-121.449 0,-0.52 -0.07,-0.969 -0.09,-1.461 -0.43,-13.5003 -6.69,-21.0511 -19.44,-24.6214 -14.09,-3.957 -28.17,-8.0273 -43.86,-12.4766 -0.04,-0.7031 -0.09,-1.3828 -0.13,-2.0703 -0.94,-14.6601 -3.92,-45.6797 -3.93,-45.7734 l 285.14,0.2812 c 0,0 -2.9,32.1094 -3.88,47.4297 -0.01,0.0508 -0.01,0.0899 -0.01,0.1328 -15.69,4.4493 -29.77,8.5196 -43.86,12.4766 -10.28,2.8828 -16.32,8.3516 -18.53,17.4104 -0.11,2.203 -0.17,4.519 -0.17,7.09 -0.01,160.019 0.65,469.613 1.13,553.531 0.06,11.781 9.53,21.308 21.3,21.531 19.87,0.348 38.91,0.859 57.82,-0.551 62.17,-4.609 106.3,-40.449 125.08,-100 13.39,-42.461 14.36,-85.66 1.62,-128.101 -16.75,-55.797 -49.59,-103.09 -146.78,-104.52 l -3.72,-48.719 c 88.19,-1.699 168.41,12.02 238.66,66.168 63.93,49.274 91.54,115.172 80.24,195.473"
         style="fill:#ffffff;fill-opacity:1;fill-rule:nonzero;stroke:none"
         transform="matrix(0.13333333,0,0,-0.13333333,0,421.05333)" />
      <path
         id="path8"
         d="m 4449.16,614.719 h -224.01 c 1.11,-17.551 3.11,-33.867 4.11,-50.797 7.53,-1.852 11.87,-2.723 16.18,-3.961 33.01,-9.02 38.58,-23.84 20.53,-53.512 -17.68,-29.168 -102.3,-206.238 -102.3,-206.238 0,0 -77.13,138.519 -107.57,199.309 -5.11,10.191 -28.39,48.371 11.25,58.839 10.28,2.723 21,3.84 33.61,6.18 0.74,17.18 3.95,50.18 3.95,50.18 H 3807.9 c 1.49,-17.789 2.85,-34.481 4.21,-50.918 6.17,-1.481 51.59,-13.91 72.67,-45.602 17.67,-26.59 130.56,-245.64 169.49,-305.34 l 0.62,-99.679 c -0.44,-13.5003 -6.69,-21.0511 -19.45,-24.6214 -4.73,-1.3281 -9.48,-2.6797 -14.27,-4.0469 -9.48,-2.6914 -19.17,-5.4726 -29.6,-8.4297 -0.05,-0.7031 -3.82,-47.664 -3.82,-47.7109 0,-0.0508 285.14,-0.1211 285.14,-0.1211 0,0.0313 -3.06,32.3789 -4.04,47.6992 0,0.0391 -0.01,0.0899 -0.01,0.1328 -15.69,4.4493 -29.78,8.5196 -43.88,12.4766 -1.39,0.3906 -2.7,0.8398 -3.95,1.3398 -7.88,3.1133 -13.21,7.8321 -14.58,16.0706 -0.11,2.203 -0.17,4.511 -0.17,7.09 -0.01,16.73 -2.64,95.632 0.94,101.562 l 113.9,239.051 c 30.51,48.578 62.53,96.16 123.96,109.758 1.11,9.879 4.1,51.289 4.1,51.289"
         style="fill:#ffffff;fill-opacity:1;fill-rule:nonzero;stroke:none"
         transform="matrix(0.13333333,0,0,-0.13333333,0,421.05333)" />
      <path
         id="path9"
         d="m 2597.01,1903.93 -82.18,88.87 48.38,45.46 -51.66,55.13 -30.73,-28.86 4.39,-44.56 -109.42,116.81 -41.38,1.28 -91.22,-81.05 -1.2,-38.83 87.95,-95.44 -4.52,-4.24 -16.68,-15.67 -106.48,-102.4 -311.89,336.82 -22.64,22.69 -5.22,-162.59 c -0.8,-25.61 3.87,-41.56 13.59,-55.1 1.15,-1.61 2.36,-3.21 3.65,-4.78 11.78,-14.1 24.31,-26.49 50.94,-37.22 47.48,-19.17 102.24,-22.12 102.79,-22.15 l 24.64,-1.2 -21.64,-11.84 c -0.18,-0.1 -1.42,-0.73 -3.3,-1.54 -7.07,-3.05 -25.79,-9.59 -55.4,-8.67 -19.45,0.61 -42,3.92 -67.12,9.86 4.28,-4.72 9.46,-10.04 15.53,-16.03 1.36,-1.32 2.69,-2.63 4.13,-4.03 25.74,-24.89 52.88,-33.99 88.29,-40.61 33.01,-6.19 94.69,-14.79 95.23,-14.86 l 21.37,-2.99 -17.22,-9.06 -1.86,-0.99 c -0.88,-0.47 -22.04,-11.45 -59.62,-10.28 -25.04,0.77 -46.7,4.95 -61.89,8.85 l 11.63,-12.67 4.41,-4.82 c 13.1,-14.25 35.55,-25.87 68.63,-35.53 9.57,-2.79 19.39,-5.19 28.94,-7.29 34.24,-7.51 64.73,-10.71 65.11,-10.75 l 22.21,-2.29 -13.07,-7.15 -6.52,-3.57 c -2.43,-1.32 -24.72,-12.79 -64,-10.35 -11.31,0.7 -22.99,2.36 -34.83,4.89 -0.12,0.02 -0.23,0.03 -0.35,0.06 l 0.19,-0.21 -154.31,-144.96 51.73,-55.06 157.99,148.42 c 31.64,-17.4 83.46,-33.81 125.91,-35.13 l 68.25,-2.31 115.84,-120.21 60.69,-0.06 -250.66,270.5 109.78,103.14 15.38,14.46 3.7,3.48 2.86,2.69 81.99,-88.15 41.39,-1.29 91.21,81.07 1.2,38.82 -2.91,3.49"
         style="fill:#ffffff;fill-opacity:1;fill-rule:nonzero;stroke:none"
         transform="matrix(0.13333333,0,0,-0.13333333,0,421.05333)" />
      <path
         id="path10"
         d="m 2214.27,2981.7 c 0,3.39 -0.85,5.89 -2.63,7.66 -2.6,2.57 -7.38,3.82 -14.64,3.82 h -0.53 l -11.69,-0.11 v -24.73 l 11.46,0.11 c 11.97,0.1 18.03,4.56 18.03,13.25"
         style="fill:#ffffff;fill-opacity:1;fill-rule:nonzero;stroke:none"
         transform="matrix(0.13333333,0,0,-0.13333333,0,421.05333)" />
      <path
         id="path11"
         d="m 1910.79,2969.18 c 0,4.46 -1.1,7.67 -3.37,9.81 -3.16,2.99 -8.75,4.16 -17.58,3.65 l -12.79,-0.73 v -31.57 l 12.6,0.73 c 14.03,0.8 21.14,6.89 21.14,18.11"
         style="fill:#ffffff;fill-opacity:1;fill-rule:nonzero;stroke:none"
         transform="matrix(0.13333333,0,0,-0.13333333,0,421.05333)" />
      <path
         id="path12"
         d="m 2220.41,2930.79 c 0.01,3.83 -1.01,6.7 -3.12,8.79 -3.2,3.18 -9.05,4.73 -17.86,4.73 h -0.6 l -14.05,-0.13 v -28.72 l 14.03,0.13 c 14.54,0.11 21.6,5.08 21.6,15.2"
         style="fill:#ffffff;fill-opacity:1;fill-rule:nonzero;stroke:none"
         transform="matrix(0.13333333,0,0,-0.13333333,0,421.05333)" />
      <path
         id="path13"
         d="m 2611.18,2905.69 c 5.97,-0.42 11.36,1.48 15.6,5.48 6.64,6.28 10.3,17.61 10.29,31.92 0,23.87 -9.75,38.69 -26.08,39.62 -0.52,0.04 -1.04,0.05 -1.54,0.05 -5.68,0 -10.51,-1.85 -14.41,-5.53 -6.48,-6.12 -9.93,-16.83 -9.95,-30.97 0.02,-24.1 10.02,-39.65 26.09,-40.57"
         style="fill:#ffffff;fill-opacity:1;fill-rule:nonzero;stroke:none"
         transform="matrix(0.13333333,0,0,-0.13333333,0,421.05333)" />
      <path
         id="path14"
         d="m 2490.04,2920.38 c 6.21,6 9.36,16 9.35,29.69 0.04,25.57 -10.71,37.85 -33.75,38.65 l -3.59,0.11 v -75.71 l 3.7,-0.12 c 10.77,-0.39 18.76,2.04 24.29,7.38"
         style="fill:#ffffff;fill-opacity:1;fill-rule:nonzero;stroke:none"
         transform="matrix(0.13333333,0,0,-0.13333333,0,421.05333)" />
      <path
         id="path15"
         d="m 2624.89,3146.23 c -4.11,0.25 -8.23,0.49 -12.37,0.73 -90.15,5.21 -187.34,9.17 -286.31,10.47 -2.5,0.03 -5.01,0.06 -7.52,0.09 -2.51,0.04 -5.02,0.06 -7.52,0.09 -17.74,0.18 -35.51,0.27 -53.33,0.27 -11.06,0 -22.11,-0.03 -33.18,-0.1 -2.47,-0.02 -4.95,-0.04 -7.42,-0.05 -2.48,-0.03 -4.94,-0.05 -7.42,-0.07 -85.54,-0.8 -170.86,-3.63 -252.28,-7.6 -2.51,-0.13 -5,-0.25 -7.49,-0.38 -2.5,-0.12 -5,-0.25 -7.5,-0.37 -30.51,-1.55 -60.44,-3.26 -89.58,-5.07 -2.56,-0.17 -5.13,-0.32 -7.68,-0.49 -2.57,-0.16 -5.12,-0.32 -7.67,-0.48 -248.55,-15.94 -436.18,-39.2 -436.18,-39.2 v -222.75 l 2.62,-175.84 0.12,-8.35 0.01,-0.7 0.11,-7.65 1.32,-88.64 0.13,-7.91 0.11,-7.91 6.49,-436.61 c -1.28,-152.55 36.44,-290.21 96.32,-412.26 172.29,-351.24 528.07,-573.22 666.07,-649.17 l 58.93,-30.31 56.02,30.31 c 143.57,76.61 514.84,301.16 693.27,656.28 60.3,120.02 98.59,254.95 98.59,404.13 l 8.06,549.78 3,204.61 v 202.99 c 0,0 -201.81,26.34 -467.72,42.16 m 285.23,-177.42 c 11.24,10.06 26.77,14.58 43.7,12.65 19.65,-2.18 32.72,-12.73 40.22,-21.19 l 1,-1.14 -17.01,-18.79 -1.27,1.3 c -6.2,6.43 -12.38,10.94 -22.39,12.06 -7.99,0.87 -15.08,-1.13 -20.38,-5.88 -6.8,-6.09 -10.4,-16.06 -10.39,-28.84 0,-25.41 11.55,-40.13 33.4,-42.58 4.35,-0.49 8.61,0.1 11.25,1.49 v 19 c -6.36,0.73 -12.7,1.44 -19.05,2.14 l -1.51,0.17 v 26.39 l 1.89,-0.22 c 15.16,-1.68 30.31,-3.41 45.46,-5.21 l 1.51,-0.18 v -59.65 l -0.59,-0.5 c -8.26,-7.14 -21.07,-11.19 -34.65,-11.19 -2.51,0 -5.05,0.14 -7.59,0.42 -37.87,4.24 -62.31,32.49 -62.28,71.97 0,20.33 6.45,36.85 18.68,47.78 m -144.91,28.61 1.83,-0.15 c 9.6,-0.79 19.21,-1.6 28.82,-2.44 l 0.95,-0.07 0.43,-0.85 c 10.8,-21.57 21.61,-43.16 32.42,-64.78 l 8.9,-20.64 c 0,0.01 0,0.04 0,0.07 -1.26,11.81 -2.69,25.19 -2.67,36.86 v 45.83 l 1.86,-0.17 c 8.92,-0.83 17.84,-1.69 26.77,-2.56 l 1.53,-0.15 v -127.83 l -1.87,0.17 c -9.59,0.94 -19.18,1.85 -28.78,2.74 l -0.93,0.09 -0.42,0.85 c -10.84,21.75 -21.63,43.38 -32.42,64.97 l -8.95,20.55 c 0.06,-0.48 0.1,-0.96 0.16,-1.43 1.2,-11.3 2.55,-24.1 2.55,-35.43 v -46.01 l -1.84,0.16 c -8.93,0.78 -17.85,1.52 -26.79,2.26 l -1.55,0.12 z m -70.14,5.34 1.83,-0.13 c 9.38,-0.67 18.77,-1.36 28.12,-2.06 l 1.58,-0.12 v -127.83 l -1.82,0.14 c -9.37,0.7 -18.74,1.39 -28.12,2.05 l -1.59,0.11 z m -124.32,-5.68 c 10.21,9.64 24.08,14.2 40.43,13.32 35.33,-2.03 58.15,-29.17 58.13,-69.15 -0.01,-21.47 -6.28,-38.73 -18.14,-49.92 -9.36,-8.83 -21.82,-13.45 -36.21,-13.45 -1.31,0 -2.63,0.04 -3.97,0.12 -35.33,2.02 -58.16,29.38 -58.16,69.73 0.01,21.23 6.22,38.3 17.92,49.35 m -140.27,18.79 1.75,-0.05 c 11.74,-0.34 23.49,-0.71 35.24,-1.11 41.39,-1.45 64.19,-24.83 64.18,-65.84 0,-20.7 -5.6,-36.6 -16.65,-47.28 -10.2,-9.83 -24.49,-14.82 -42.53,-14.82 -1.16,0 -2.35,0.03 -3.55,0.07 -12.27,0.42 -24.53,0.8 -36.79,1.16 l -1.65,0.05 z m -168.37,2.61 c 10.04,-0.03 20.08,-0.07 30.13,-0.14 h 1.15 l 0.43,-1.07 c 3.72,-9.56 7.43,-19.13 11.13,-28.69 2.12,-5.94 4.19,-11.54 6.33,-17.31 l 2.63,-7.13 c 1.33,3.52 2.67,6.92 3.98,10.31 1.8,4.59 3.58,9.14 5.32,13.88 l 11.57,29.57 1.17,-0.02 c 9.82,-0.13 19.63,-0.29 29.44,-0.47 l 2.64,-0.04 -1.13,-2.39 c -12.45,-26.34 -24.91,-52.71 -37.39,-79.12 v -45.72 l -1.71,0.03 c -9.39,0.12 -18.76,0.22 -28.16,0.29 l -1.69,0.02 v 45.68 c -12.46,26.68 -24.92,53.3 -37.39,79.89 l -1.13,2.43 z m -108.91,-0.7 1.68,0.02 c 14.23,0.22 28.43,0.38 42.67,0.49 18.83,0.1 31.96,-3.5 39.71,-11.22 5.29,-5.24 7.97,-12.35 7.97,-21.14 0,-11.34 -5.9,-22.11 -14.4,-27 13.1,-4.6 20.53,-15.33 20.53,-29.91 -0.01,-23.89 -18.78,-38.29 -50.23,-38.52 -15.39,-0.11 -30.8,-0.28 -46.21,-0.51 l -1.72,-0.03 z m -184.48,-5.43 1.62,0.08 c 9.63,0.41 19.25,0.82 28.88,1.19 l 1.06,0.04 0.5,-0.94 c 10.83,-20.2 21.67,-40.43 32.51,-60.69 l 9.02,-19.72 c -1.28,11.85 -2.74,25.28 -2.75,37.16 v 45.6 l 1.66,0.06 c 8.95,0.29 17.88,0.56 26.84,0.82 l 1.75,0.03 v -127.81 l -1.66,-0.05 c -9.61,-0.27 -19.23,-0.56 -28.85,-0.88 l -1.05,-0.03 -0.51,0.93 c -10.83,20.31 -21.66,40.61 -32.5,60.88 l -9.06,19.64 c 0.07,-0.68 0.15,-1.37 0.21,-2.07 1.21,-11.11 2.56,-23.71 2.57,-35.02 v -45.78 l -1.63,-0.07 c -8.95,-0.35 -17.89,-0.72 -26.84,-1.11 l -1.77,-0.07 z m -123.21,-6.62 1.6,0.1 c 14.93,0.95 29.88,1.85 44.84,2.69 17.9,1 31.3,-2.5 39.65,-10.41 6.78,-6.4 10.2,-15.66 10.2,-27.52 -0.01,-17.07 -7.71,-30.13 -21.5,-37.75 9.09,-15.57 18.17,-31.17 27.26,-46.79 l 1.41,-2.42 -2.8,-0.14 c -10.48,-0.49 -20.99,-1.02 -31.48,-1.57 l -1.07,-0.06 -0.52,0.94 c -7.75,14.19 -15.5,28.38 -23.25,42.54 -4.27,-0.24 -8.54,-0.49 -12.8,-0.73 v -44.78 l -1.6,-0.1 c -9.39,-0.55 -18.76,-1.12 -28.13,-1.7 l -1.81,-0.13 z m -136.08,-135.59 c 13,42.58 26.03,85.12 39.04,127.61 l 0.34,1.11 1.16,0.09 c 11.21,0.88 22.44,1.73 33.66,2.54 l 1.33,0.11 0.42,-1.28 39.72,-123.75 -2.17,-0.14 c -9.91,-0.66 -19.83,-1.36 -29.75,-2.06 l -1.42,-0.11 -7.65,29.09 c -11.76,-0.86 -23.53,-1.76 -35.28,-2.68 -2.47,-9.69 -4.93,-19.38 -7.39,-29.08 l -0.29,-1.18 -1.22,-0.09 c -9.58,-0.78 -19.16,-1.56 -28.73,-2.38 l -2.51,-0.21 z m -101.21,116.06 1.52,0.16 c 25.97,2.62 52.17,5.1 77.86,7.38 l 1.85,0.16 v -27.01 l -1.55,-0.13 c -16.07,-1.43 -32.14,-2.91 -48.2,-4.45 v -21.57 c 13.49,1.3 26.99,2.55 40.49,3.76 l 1.85,0.17 v -27.01 l -1.54,-0.14 c -13.61,-1.22 -27.21,-2.48 -40.8,-3.8 v -25.24 c 16.59,1.59 33.19,3.13 49.8,4.6 l 1.86,0.16 v -27.01 l -1.56,-0.13 c -26.13,-2.3 -52.95,-4.85 -79.71,-7.55 l -1.87,-0.18 z m -108.71,-11.93 1.5,0.17 c 9.34,1.11 18.7,2.19 28.04,3.26 l 1.91,0.21 v -100.83 c 15.68,1.79 31.37,3.51 47.09,5.17 l 1.87,0.21 v -27.02 l -1.52,-0.17 c -25.74,-2.72 -51.64,-5.63 -76.99,-8.63 l -1.9,-0.22 z M 2997.7,2084.44 c -2.41,-28.82 -7.37,-66.8 -17.38,-111.16 -13.43,-59.53 -36,-130.51 -73.69,-206.1 -40.89,-82.04 -99.6,-169.49 -183.89,-253.64 -261.06,-261.4 -491.46,-321.69 -491.46,-321.69 0,0 -215.42,67.45 -466.94,318.8 -84.62,84.61 -143.76,171.6 -185.13,252.68 -34.16,66.93 -56.19,129.81 -70.37,184.02 -10.36,39.59 -16.54,74.54 -20.2,103.04 -6.47,50.38 -5.11,80.63 -5.11,80.63 0,0 1.72,0.99 5.11,2.75 16.45,8.53 73.14,35.84 172.84,62.82 67.27,18.41 154.1,36.81 261.29,49.45 84.14,9.91 180.83,16.28 290.46,16.28 52.82,0 103.17,-1.3 151.04,-3.62 377.9,-18.28 599.11,-100.26 631.24,-112.91 2.72,-1.06 4.12,-1.66 4.12,-1.66 0,0 1.2,-22.03 -1.93,-59.69 M 2528.85,2354 c 1.89,0.56 9.1,3.09 19.91,6.95 59.15,21.18 226.09,82.21 226.09,82.21 l -0.03,-0.01 c 0.01,0 0.04,0.01 0.04,0.01 l -148.27,-96.55 h -0.05 -0.01 l -97.75,7.32 c 0.03,0.02 0.13,0.05 0.18,0.07 z m 473.33,12.02 c 0,0.02 -0.02,0.03 -0.03,0.04 -0.4,0.23 -0.89,0.57 -1.32,0.82 -1.34,0.84 -2.71,1.69 -4.25,2.72 h -0.18 c -59.94,41.2 -176.99,152.75 -183.41,152.75 -1.18,0 -415.67,-150.71 -415.67,-150.71 -0.51,-0.17 -6.23,-1.4 -10.01,-1.47 l -20.27,4.7 -76.97,17.8 -10.95,2.54 -10.94,2.53 -3.53,0.81 -9.71,2.24 -9.69,2.25 -28.3,6.55 -7.87,1.82 -13.5,3.11 -7.52,1.75 -17.82,4.12 -7.19,1.67 -11.9,2.75 -7.27,1.67 -4.49,1.04 -12.81,-6.71 -6.76,-3.54 -10.33,-5.42 -6.62,-3.46 -13.59,-7.13 -6.65,-3.49 -10.55,-5.52 -6.84,-3.59 -18.73,-9.82 -8.01,-4.2 -14.67,-7.69 c -1.45,0.01 -2.86,0.01 -4.27,0.01 -8.04,0.04 -15.36,0.07 -21.71,0.11 -16.26,0.08 -26.27,0.14 -26.27,0.14 -18.5,0.38 -37.58,0.59 -57,0.65 -180.86,0.59 -390.26,-11.45 -425.94,-13.75 l 7.49,197.09 425.66,-156.22 c 0.77,2.33 1.58,4.66 2.42,6.98 0.85,2.31 1.74,4.6 2.66,6.89 1.58,3.92 3.29,7.82 5.1,11.67 1.04,2.22 2.12,4.44 3.23,6.63 1.12,2.2 2.26,4.38 3.45,6.53 l -438.51,222.95 1.87,49.22 c 52.01,5.46 122.08,12.52 204.84,19.39 l 266.41,-244.11 c 1.68,1.79 3.4,3.56 5.15,5.28 1.75,1.74 3.53,3.45 5.32,5.13 3.1,2.87 6.3,5.67 9.57,8.39 1.89,1.56 3.81,3.11 5.76,4.62 1.93,1.5 3.9,2.99 5.89,4.45 l -176.44,225.43 c 41.67,2.81 85.4,5.42 130.69,7.66 l 97.13,-204.73 c 2.29,0.91 4.59,1.78 6.9,2.62 2.32,0.84 4.65,1.62 6.99,2.38 4.05,1.32 8.11,2.5 12.2,3.58 2.38,0.63 4.77,1.23 7.16,1.78 2.4,0.55 4.81,1.08 7.22,1.55 l -45.62,196.76 c 11.43,0.42 22.93,0.79 34.49,1.15 28.93,0.87 58.07,1.56 87.32,2.02 l -17.68,-196.03 c 2.46,-0.14 4.91,-0.33 7.36,-0.55 2.46,-0.23 4.9,-0.51 7.34,-0.8 4.21,-0.53 8.39,-1.17 12.54,-1.92 2.42,-0.44 4.85,-0.9 7.25,-1.41 2.4,-0.52 4.8,-1.08 7.19,-1.67 l 60.26,203.08 h 0.59 c 41.29,0 82.48,-0.51 123.2,-1.44 l -129.38,-222.72 c 2.17,-1.16 4.31,-2.35 6.45,-3.6 2.13,-1.23 4.23,-2.51 6.32,-3.82 3.57,-2.24 7.09,-4.57 10.55,-7 2.02,-1.43 4.02,-2.87 5.98,-4.34 1.84,-1.39 3.63,-2.81 5.44,-4.25 l -0.3,-0.53 0.39,0.46 c 0.1,-0.08 0.19,-0.15 0.29,-0.23 l 3.84,5.1 201.37,237.4 c 79.65,-3.24 156,-7.77 225.94,-12.79 L 2327.35,2460.2 c 1.46,-1.97 2.9,-3.97 4.3,-6 1.41,-2.01 2.79,-4.05 4.13,-6.13 1.12,-1.73 2.24,-3.49 3.31,-5.27 1.13,-1.84 2.22,-3.68 3.29,-5.53 1.23,-2.14 2.41,-4.3 3.56,-6.46 1.16,-2.19 2.29,-4.38 3.37,-6.58 l 549.63,292.87 c 30.78,-2.92 58.65,-5.74 83.02,-8.3 3.29,-0.35 6.52,-0.69 9.69,-1.03 l 10.53,-341.57 v -0.18"
         style="fill:#ffffff;fill-opacity:1;fill-rule:nonzero;stroke:none"
         transform="matrix(0.13333333,0,0,-0.13333333,0,421.05333)" />
      <path
         id="path16"
         d="m 1775.13,2937.45 c -2.17,7.67 -4.33,16.35 -6.42,24.74 -0.77,3.15 -1.55,6.29 -2.33,9.36 -2.67,-11.76 -5.62,-24.61 -8.6,-35.67 -0.8,-3.14 -1.6,-6.29 -2.4,-9.43 7.4,0.58 14.8,1.13 22.21,1.68 l -2.46,9.32"
         style="fill:#ffffff;fill-opacity:1;fill-rule:nonzero;stroke:none"
         transform="matrix(0.13333333,0,0,-0.13333333,0,421.05333)" />
    </g>
  </g>
</svg>
